<svg xmlns="http://www.w3.org/2000/svg" xmlns:xlink="http://www.w3.org/1999/xlink" width="500" zoomAndPan="magnify" viewBox="0 0 375 374.999991" height="500" preserveAspectRatio="xMidYMid meet" version="1.0"><defs><g/><clipPath id="97401b7c21"><path d="M 44 131.964844 L 119 131.964844 L 119 209 L 44 209 Z M 44 131.964844 " clip-rule="nonzero"/></clipPath><clipPath id="a1e78ba320"><path d="M 16.964844 131.964844 L 116 131.964844 L 116 233.964844 L 16.964844 233.964844 Z M 16.964844 131.964844 " clip-rule="nonzero"/></clipPath><clipPath id="1645c7e1d2"><path d="M 16.964844 137 L 107 137 L 107 219 L 16.964844 219 Z M 16.964844 137 " clip-rule="nonzero"/></clipPath><clipPath id="fb25a0b349"><path d="M 61 151 L 141 151 L 141 233.964844 L 61 233.964844 Z M 61 151 " clip-rule="nonzero"/></clipPath><clipPath id="cfe724ce6d"><path d="M 54 144 L 141.464844 144 L 141.464844 233.964844 L 54 233.964844 Z M 54 144 " clip-rule="nonzero"/></clipPath><clipPath id="14271c7c5a"><path d="M 59 149 L 141.464844 149 L 141.464844 222 L 59 222 Z M 59 149 " clip-rule="nonzero"/></clipPath><clipPath id="09ff7c824e"><path d="M 69 162 L 136 162 L 136 213 L 69 213 Z M 69 162 " clip-rule="nonzero"/></clipPath><clipPath id="a208e092cc"><path d="M 73.746094 162.425781 L 135.714844 168.351562 L 131.5 212.398438 L 69.535156 206.472656 Z M 73.746094 162.425781 " clip-rule="nonzero"/></clipPath><clipPath id="b7edf0792d"><path d="M 73.746094 162.425781 L 135.714844 168.351562 L 131.5 212.398438 L 69.535156 206.472656 Z M 73.746094 162.425781 " clip-rule="nonzero"/></clipPath><clipPath id="6add65f704"><path d="M 73.746094 162.425781 L 135.714844 168.351562 L 131.5 212.398438 L 69.535156 206.472656 Z M 73.746094 162.425781 " clip-rule="nonzero"/></clipPath><clipPath id="739cb93599"><path d="M 78 168 L 79 168 L 79 169 L 78 169 Z M 78 168 " clip-rule="nonzero"/></clipPath><clipPath id="6b040b9fc9"><path d="M 73.746094 162.425781 L 135.714844 168.351562 L 131.5 212.398438 L 69.535156 206.472656 Z M 73.746094 162.425781 " clip-rule="nonzero"/></clipPath><clipPath id="3aebfcf396"><path d="M 73.746094 162.425781 L 135.714844 168.351562 L 131.5 212.398438 L 69.535156 206.472656 Z M 73.746094 162.425781 " clip-rule="nonzero"/></clipPath><clipPath id="58da719c20"><path d="M 73.746094 162.425781 L 135.714844 168.351562 L 131.5 212.398438 L 69.535156 206.472656 Z M 73.746094 162.425781 " clip-rule="nonzero"/></clipPath><clipPath id="30067793a5"><path d="M 77 165 L 82 165 L 82 171 L 77 171 Z M 77 165 " clip-rule="nonzero"/></clipPath><clipPath id="7101177fe0"><path d="M 73.746094 162.425781 L 135.714844 168.351562 L 131.5 212.398438 L 69.535156 206.472656 Z M 73.746094 162.425781 " clip-rule="nonzero"/></clipPath><clipPath id="1263f417a7"><path d="M 73.746094 162.425781 L 135.714844 168.351562 L 131.5 212.398438 L 69.535156 206.472656 Z M 73.746094 162.425781 " clip-rule="nonzero"/></clipPath><clipPath id="f463fbfe7d"><path d="M 73.746094 162.425781 L 135.714844 168.351562 L 131.5 212.398438 L 69.535156 206.472656 Z M 73.746094 162.425781 " clip-rule="nonzero"/></clipPath><clipPath id="d23b33d328"><path d="M 82 166 L 87 166 L 87 171 L 82 171 Z M 82 166 " clip-rule="nonzero"/></clipPath><clipPath id="8f4d771481"><path d="M 73.746094 162.425781 L 135.714844 168.351562 L 131.5 212.398438 L 69.535156 206.472656 Z M 73.746094 162.425781 " clip-rule="nonzero"/></clipPath><clipPath id="1a4a2335b9"><path d="M 73.746094 162.425781 L 135.714844 168.351562 L 131.5 212.398438 L 69.535156 206.472656 Z M 73.746094 162.425781 " clip-rule="nonzero"/></clipPath><clipPath id="2797511d70"><path d="M 73.746094 162.425781 L 135.714844 168.351562 L 131.5 212.398438 L 69.535156 206.472656 Z M 73.746094 162.425781 " clip-rule="nonzero"/></clipPath><clipPath id="b680e4836f"><path d="M 83 168 L 84 168 L 84 169 L 83 169 Z M 83 168 " clip-rule="nonzero"/></clipPath><clipPath id="bc02fe12d2"><path d="M 73.746094 162.425781 L 135.714844 168.351562 L 131.5 212.398438 L 69.535156 206.472656 Z M 73.746094 162.425781 " clip-rule="nonzero"/></clipPath><clipPath id="d8f9eeb16c"><path d="M 73.746094 162.425781 L 135.714844 168.351562 L 131.5 212.398438 L 69.535156 206.472656 Z M 73.746094 162.425781 " clip-rule="nonzero"/></clipPath><clipPath id="dff4477568"><path d="M 73.746094 162.425781 L 135.714844 168.351562 L 131.5 212.398438 L 69.535156 206.472656 Z M 73.746094 162.425781 " clip-rule="nonzero"/></clipPath><clipPath id="57d3ee8717"><path d="M 87 166 L 92 166 L 92 172 L 87 172 Z M 87 166 " clip-rule="nonzero"/></clipPath><clipPath id="9513bd1f98"><path d="M 73.746094 162.425781 L 135.714844 168.351562 L 131.5 212.398438 L 69.535156 206.472656 Z M 73.746094 162.425781 " clip-rule="nonzero"/></clipPath><clipPath id="08711f6117"><path d="M 73.746094 162.425781 L 135.714844 168.351562 L 131.5 212.398438 L 69.535156 206.472656 Z M 73.746094 162.425781 " clip-rule="nonzero"/></clipPath><clipPath id="0e0e67d973"><path d="M 73.746094 162.425781 L 135.714844 168.351562 L 131.5 212.398438 L 69.535156 206.472656 Z M 73.746094 162.425781 " clip-rule="nonzero"/></clipPath><clipPath id="e6cecf161d"><path d="M 89 169 L 90 169 L 90 170 L 89 170 Z M 89 169 " clip-rule="nonzero"/></clipPath><clipPath id="b070f42b1a"><path d="M 73.746094 162.425781 L 135.714844 168.351562 L 131.5 212.398438 L 69.535156 206.472656 Z M 73.746094 162.425781 " clip-rule="nonzero"/></clipPath><clipPath id="c8a58801ef"><path d="M 73.746094 162.425781 L 135.714844 168.351562 L 131.5 212.398438 L 69.535156 206.472656 Z M 73.746094 162.425781 " clip-rule="nonzero"/></clipPath><clipPath id="3117acdabe"><path d="M 73.746094 162.425781 L 135.714844 168.351562 L 131.5 212.398438 L 69.535156 206.472656 Z M 73.746094 162.425781 " clip-rule="nonzero"/></clipPath><clipPath id="256a525d89"><path d="M 88 168 L 89 168 L 89 169 L 88 169 Z M 88 168 " clip-rule="nonzero"/></clipPath><clipPath id="176c33cd26"><path d="M 73.746094 162.425781 L 135.714844 168.351562 L 131.5 212.398438 L 69.535156 206.472656 Z M 73.746094 162.425781 " clip-rule="nonzero"/></clipPath><clipPath id="b1c1d3b9be"><path d="M 73.746094 162.425781 L 135.714844 168.351562 L 131.5 212.398438 L 69.535156 206.472656 Z M 73.746094 162.425781 " clip-rule="nonzero"/></clipPath><clipPath id="c4e23b6a98"><path d="M 73.746094 162.425781 L 135.714844 168.351562 L 131.5 212.398438 L 69.535156 206.472656 Z M 73.746094 162.425781 " clip-rule="nonzero"/></clipPath><clipPath id="9fc4edf3a3"><path d="M 107 185 L 115 185 L 115 199 L 107 199 Z M 107 185 " clip-rule="nonzero"/></clipPath><clipPath id="7a02f736a3"><path d="M 73.746094 162.425781 L 135.714844 168.351562 L 131.5 212.398438 L 69.535156 206.472656 Z M 73.746094 162.425781 " clip-rule="nonzero"/></clipPath><clipPath id="42b250159e"><path d="M 73.746094 162.425781 L 135.714844 168.351562 L 131.5 212.398438 L 69.535156 206.472656 Z M 73.746094 162.425781 " clip-rule="nonzero"/></clipPath><clipPath id="cbe61ab657"><path d="M 73.746094 162.425781 L 135.714844 168.351562 L 131.5 212.398438 L 69.535156 206.472656 Z M 73.746094 162.425781 " clip-rule="nonzero"/></clipPath><clipPath id="4d55e601cb"><path d="M 89 184 L 97 184 L 97 198 L 89 198 Z M 89 184 " clip-rule="nonzero"/></clipPath><clipPath id="76cdf95467"><path d="M 73.746094 162.425781 L 135.714844 168.351562 L 131.5 212.398438 L 69.535156 206.472656 Z M 73.746094 162.425781 " clip-rule="nonzero"/></clipPath><clipPath id="4106f04349"><path d="M 73.746094 162.425781 L 135.714844 168.351562 L 131.5 212.398438 L 69.535156 206.472656 Z M 73.746094 162.425781 " clip-rule="nonzero"/></clipPath><clipPath id="a73ced2cdc"><path d="M 73.746094 162.425781 L 135.714844 168.351562 L 131.5 212.398438 L 69.535156 206.472656 Z M 73.746094 162.425781 " clip-rule="nonzero"/></clipPath><clipPath id="7f39488933"><path d="M 98 185 L 107 185 L 107 198 L 98 198 Z M 98 185 " clip-rule="nonzero"/></clipPath><clipPath id="ced5f4ece6"><path d="M 73.746094 162.425781 L 135.714844 168.351562 L 131.5 212.398438 L 69.535156 206.472656 Z M 73.746094 162.425781 " clip-rule="nonzero"/></clipPath><clipPath id="83f9cc9596"><path d="M 73.746094 162.425781 L 135.714844 168.351562 L 131.5 212.398438 L 69.535156 206.472656 Z M 73.746094 162.425781 " clip-rule="nonzero"/></clipPath><clipPath id="f0f9311e32"><path d="M 73.746094 162.425781 L 135.714844 168.351562 L 131.5 212.398438 L 69.535156 206.472656 Z M 73.746094 162.425781 " clip-rule="nonzero"/></clipPath></defs><path fill="#ba5a87" d="M 45.535156 132.625 L 118.335938 132.625 L 118.335938 208.050781 L 45.535156 208.050781 Z M 45.535156 132.625 " fill-opacity="1" fill-rule="nonzero"/><g clip-path="url(#97401b7c21)"><path stroke-linecap="butt" transform="matrix(0.164393, 0, 0, 0.164995, 40.837545, 37.244858)" fill="none" stroke-linejoin="miter" d="M 28.575528 578.078496 L 471.422036 578.078496 L 471.422036 1035.217911 L 28.575528 1035.217911 Z M 28.575528 578.078496 " stroke="#000000" stroke-width="8" stroke-opacity="1" stroke-miterlimit="4"/></g><path stroke-linecap="butt" transform="matrix(0.164393, 0, 0, 0.164995, 40.837545, 37.244858)" fill-opacity="1" fill="#43200c" fill-rule="nonzero" stroke-linejoin="miter" d="M 51.434268 609.518816 L 448.563296 609.518816 L 448.563296 918.074308 L 51.434268 918.074308 Z M 51.434268 609.518816 " stroke="#000000" stroke-width="8" stroke-opacity="1" stroke-miterlimit="4"/><path fill="#ba5a87" d="M 17.792969 157.507812 L 88.113281 138.597656 L 107.566406 211.453125 L 37.242188 230.363281 Z M 17.792969 157.507812 " fill-opacity="1" fill-rule="nonzero"/><g clip-path="url(#a1e78ba320)"><path stroke-linecap="butt" transform="matrix(0.158791, -0.0427039, 0.042548, 0.159373, -11.340645, 66.597747)" fill="none" stroke-linejoin="miter" d="M 28.575165 578.079692 L 471.420871 578.086445 L 471.43749 1035.228781 L 28.568832 1035.215878 Z M 28.575165 578.079692 " stroke="#000000" stroke-width="8" stroke-opacity="1" stroke-miterlimit="4"/></g><path fill="#43200c" d="M 22.757812 161.539062 L 85.820312 144.582031 L 98.949219 193.757812 L 35.886719 210.71875 Z M 22.757812 161.539062 " fill-opacity="1" fill-rule="nonzero"/><g clip-path="url(#1645c7e1d2)"><path stroke-linecap="butt" transform="matrix(0.158791, -0.0427039, 0.042548, 0.159373, -11.340645, 66.597747)" fill="none" stroke-linejoin="miter" d="M 51.423584 609.496331 L 448.560664 609.510545 L 448.56301 918.068828 L 51.419802 918.077482 Z M 51.423584 609.496331 " stroke="#000000" stroke-width="8" stroke-opacity="1" stroke-miterlimit="4"/></g><g clip-path="url(#fb25a0b349)"><path fill="#ba5a87" d="M 68.203125 151.746094 L 140.730469 158.113281 L 134.179688 233.253906 L 61.652344 226.882812 Z M 68.203125 151.746094 " fill-opacity="1" fill-rule="nonzero"/></g><g clip-path="url(#cfe724ce6d)"><path stroke-linecap="butt" transform="matrix(0.163767, 0.0143803, -0.0143278, 0.164367, 71.806296, 56.316932)" fill="none" stroke-linejoin="miter" d="M 28.574105 578.085012 L 471.441847 578.076663 L 471.436834 1035.227864 L 28.567029 1035.212628 Z M 28.574105 578.085012 " stroke="#000000" stroke-width="8" stroke-opacity="1" stroke-miterlimit="4"/></g><path fill="#43200c" d="M 71.496094 157.238281 L 136.535156 162.949219 L 132.113281 213.667969 L 67.074219 207.957031 Z M 71.496094 157.238281 " fill-opacity="1" fill-rule="nonzero"/><g clip-path="url(#14271c7c5a)"><path stroke-linecap="butt" transform="matrix(0.163767, 0.0143803, -0.0143278, 0.164367, 71.806296, 56.316932)" fill="none" stroke-linejoin="miter" d="M 51.430133 609.499486 L 448.573406 609.498927 L 448.568812 918.068964 L 51.425538 918.069523 Z M 51.430133 609.499486 " stroke="#000000" stroke-width="8" stroke-opacity="1" stroke-miterlimit="4"/></g><g clip-path="url(#09ff7c824e)"><g clip-path="url(#a208e092cc)"><g clip-path="url(#b7edf0792d)"><g clip-path="url(#6add65f704)"><path fill="#000000" d="M 132.128906 168.007812 C 131.738281 167.96875 131.34375 167.933594 130.949219 167.894531 L 77.675781 162.800781 C 75.953125 162.636719 74.238281 163.460938 73.675781 165.183594 C 73.507812 165.910156 73.390625 166.636719 73.367188 167.375 L 70.097656 201.589844 C 69.96875 202.414062 69.9375 203.253906 70.058594 204.054688 C 70.445312 205.722656 71.890625 206.699219 73.511719 206.855469 L 127.917969 212.058594 C 128.015625 212.066406 128.117188 212.027344 128.222656 211.988281 C 130.207031 211.980469 131.636719 210.488281 131.828125 208.480469 L 135.304688 172.164062 C 135.5 170.109375 134.238281 168.257812 132.128906 168.007812 Z M 74.734375 166.074219 C 74.925781 164.5625 76.1875 163.84375 77.613281 163.980469 L 126.90625 168.695312 C 128.578125 168.855469 130.300781 168.96875 131.96875 169.179688 C 133.4375 169.367188 134.265625 170.582031 134.128906 172.003906 L 133.722656 176.261719 L 81.132812 171.230469 C 78.824219 171.011719 76.574219 170.695312 74.300781 170.578125 C 74.394531 169.105469 74.539062 167.585938 74.734375 166.074219 Z M 130.574219 208.65625 C 130.453125 209.929688 129.320312 210.859375 127.988281 210.78125 C 127.941406 210.773438 127.890625 210.769531 127.890625 210.769531 L 73.878906 205.605469 C 72.847656 205.507812 71.828125 205.261719 71.386719 204.179688 C 71.0625 203.410156 71.242188 202.585938 71.320312 201.753906 L 74.132812 172.339844 C 74.148438 172.191406 74.167969 171.996094 74.179688 171.851562 L 126.71875 176.875 C 129.027344 177.097656 131.28125 177.410156 133.550781 177.527344 L 130.621094 208.167969 C 130.605469 208.3125 130.585938 208.507812 130.574219 208.65625 Z M 130.574219 208.65625 " fill-opacity="1" fill-rule="nonzero"/></g></g></g></g><g clip-path="url(#739cb93599)"><g clip-path="url(#6b040b9fc9)"><g clip-path="url(#3aebfcf396)"><g clip-path="url(#58da719c20)"><path fill="#000000" d="M 78.703125 168.132812 C 78.707031 168.085938 78.65625 168.082031 78.703125 168.132812 Z M 78.703125 168.132812 " fill-opacity="1" fill-rule="nonzero"/></g></g></g></g><g clip-path="url(#30067793a5)"><g clip-path="url(#7101177fe0)"><g clip-path="url(#1263f417a7)"><g clip-path="url(#f463fbfe7d)"><path fill="#000000" d="M 81.003906 169.488281 C 81.382812 169.132812 81.574219 168.703125 81.625 168.167969 C 81.632812 168.070312 81.640625 168.019531 81.648438 167.921875 C 81.625 167.128906 81.144531 166.441406 80.4375 166.078125 C 79.679688 165.707031 78.722656 165.863281 78.121094 166.449219 C 77.296875 167.257812 77.273438 168.539062 78.035156 169.402344 C 78.851562 170.222656 80.136719 170.246094 81.003906 169.488281 Z M 80.410156 167.902344 C 80.410156 167.902344 80.40625 167.949219 80.410156 167.902344 C 80.40625 167.949219 80.40625 167.949219 80.40625 167.949219 C 80.40625 167.949219 80.40625 167.949219 80.410156 167.902344 Z M 78.691406 167.738281 C 78.695312 167.6875 78.695312 167.6875 78.699219 167.640625 C 78.703125 167.589844 78.757812 167.546875 78.769531 167.449219 L 78.886719 167.261719 C 78.9375 167.21875 78.992188 167.175781 79.046875 167.128906 L 79.09375 167.132812 C 79.042969 167.179688 79.09375 167.132812 79.144531 167.140625 C 79.199219 167.09375 79.296875 167.105469 79.351562 167.058594 C 79.351562 167.058594 79.199219 167.09375 79.300781 167.054688 L 79.40625 167.015625 L 79.503906 167.023438 C 79.503906 167.023438 79.503906 167.023438 79.550781 167.03125 C 79.550781 167.03125 79.601562 167.035156 79.601562 167.035156 L 79.75 167.046875 L 79.988281 167.121094 C 80.082031 167.179688 80.082031 167.179688 80.082031 167.179688 L 80.128906 167.234375 L 80.171875 167.285156 C 80.128906 167.234375 80.078125 167.226562 80.121094 167.28125 L 80.257812 167.441406 C 80.25 167.492188 80.300781 167.496094 80.296875 167.546875 L 80.335938 167.648438 C 80.332031 167.695312 80.328125 167.746094 80.375 167.75 C 80.371094 167.800781 80.316406 167.84375 80.3125 167.894531 C 80.308594 167.941406 80.308594 167.941406 80.304688 167.992188 C 80.296875 168.039062 80.238281 168.132812 80.234375 168.183594 C 80.234375 168.183594 80.230469 168.230469 80.230469 168.230469 C 80.230469 168.230469 80.230469 168.230469 80.226562 168.28125 C 80.171875 168.324219 80.113281 168.417969 80.109375 168.464844 C 80.109375 168.464844 80.054688 168.511719 80.054688 168.511719 C 80.054688 168.511719 80 168.554688 80 168.554688 L 79.953125 168.550781 C 79.898438 168.59375 79.898438 168.59375 79.953125 168.550781 C 79.898438 168.59375 79.847656 168.589844 79.84375 168.636719 L 79.789062 168.683594 L 79.535156 168.757812 C 79.484375 168.753906 79.484375 168.753906 79.4375 168.746094 L 79.242188 168.730469 C 79.191406 168.722656 79.140625 168.71875 79.148438 168.671875 L 79.054688 168.613281 C 78.960938 168.554688 79.101562 168.617188 79.101562 168.617188 C 79.101562 168.617188 78.964844 168.503906 78.964844 168.503906 L 78.871094 168.445312 C 78.871094 168.445312 78.738281 168.285156 78.738281 168.285156 L 78.691406 168.230469 L 78.699219 168.183594 L 78.703125 168.132812 C 78.703125 168.132812 78.699219 168.183594 78.699219 168.183594 C 78.699219 168.183594 78.664062 168.03125 78.667969 167.980469 L 78.675781 167.882812 Z M 78.691406 167.738281 " fill-opacity="1" fill-rule="nonzero"/></g></g></g></g><g clip-path="url(#d23b33d328)"><g clip-path="url(#8f4d771481)"><g clip-path="url(#1a4a2335b9)"><g clip-path="url(#2797511d70)"><path fill="#000000" d="M 85.925781 169.863281 C 86.253906 169.546875 86.445312 169.121094 86.535156 168.683594 C 86.539062 168.636719 86.539062 168.636719 86.542969 168.585938 C 86.542969 168.585938 86.550781 168.539062 86.550781 168.539062 C 86.632812 167.65625 86.167969 166.824219 85.359375 166.449219 C 84.601562 166.082031 83.644531 166.234375 83.042969 166.820312 C 82.222656 167.632812 82.199219 168.914062 82.960938 169.777344 C 83.769531 170.644531 85.054688 170.667969 85.925781 169.863281 Z M 83.65625 168.210938 C 83.660156 168.164062 83.660156 168.164062 83.664062 168.113281 C 83.667969 168.066406 83.722656 168.019531 83.730469 167.921875 L 83.789062 167.832031 L 83.847656 167.738281 C 83.902344 167.691406 83.957031 167.648438 84.011719 167.605469 L 84.058594 167.609375 C 84.058594 167.609375 84.058594 167.609375 84.109375 167.613281 C 84.164062 167.570312 84.261719 167.578125 84.3125 167.535156 C 84.3125 167.535156 84.164062 167.570312 84.265625 167.53125 L 84.367188 167.492188 L 84.464844 167.5 C 84.464844 167.5 84.464844 167.5 84.515625 167.503906 C 84.515625 167.503906 84.566406 167.507812 84.566406 167.507812 L 84.664062 167.519531 L 84.902344 167.589844 C 84.996094 167.648438 84.996094 167.648438 84.996094 167.648438 C 84.996094 167.648438 85.046875 167.652344 85.042969 167.703125 C 85.042969 167.703125 85.042969 167.703125 85.085938 167.757812 L 85.21875 167.917969 C 85.214844 167.964844 85.265625 167.972656 85.261719 168.019531 L 85.300781 168.121094 C 85.339844 168.226562 85.335938 168.273438 85.332031 168.324219 C 85.332031 168.324219 85.332031 168.324219 85.324219 168.371094 C 85.324219 168.371094 85.324219 168.371094 85.320312 168.421875 C 85.316406 168.46875 85.316406 168.46875 85.3125 168.519531 C 85.308594 168.566406 85.25 168.660156 85.242188 168.710938 C 85.242188 168.710938 85.238281 168.757812 85.238281 168.757812 C 85.238281 168.757812 85.238281 168.757812 85.234375 168.808594 L 85.117188 168.996094 C 85.117188 168.996094 85.0625 169.039062 85.0625 169.039062 L 85.007812 169.082031 C 84.957031 169.128906 84.957031 169.128906 85.007812 169.082031 C 84.957031 169.128906 84.90625 169.121094 84.902344 169.171875 L 84.847656 169.214844 L 84.546875 169.238281 C 84.5 169.230469 84.5 169.230469 84.449219 169.226562 L 84.253906 169.207031 L 84.105469 169.195312 L 84.011719 169.136719 C 83.917969 169.078125 84.0625 169.140625 84.0625 169.140625 C 84.0625 169.140625 83.921875 169.027344 83.921875 169.027344 C 83.921875 169.027344 83.878906 168.976562 83.828125 168.96875 C 83.828125 168.96875 83.695312 168.808594 83.695312 168.808594 L 83.652344 168.753906 L 83.707031 168.710938 L 83.710938 168.664062 C 83.714844 168.613281 83.667969 168.609375 83.710938 168.664062 C 83.714844 168.613281 83.671875 168.558594 83.675781 168.511719 C 83.675781 168.511719 83.679688 168.460938 83.683594 168.414062 C 83.640625 168.359375 83.648438 168.261719 83.65625 168.210938 Z M 83.65625 168.210938 " fill-opacity="1" fill-rule="nonzero"/></g></g></g></g><g clip-path="url(#b680e4836f)"><g clip-path="url(#bc02fe12d2)"><g clip-path="url(#d8f9eeb16c)"><g clip-path="url(#dff4477568)"><path fill="#000000" d="M 83.65625 168.210938 C 83.71875 168.070312 83.660156 168.164062 83.65625 168.210938 Z M 83.65625 168.210938 " fill-opacity="1" fill-rule="nonzero"/></g></g></g></g><g clip-path="url(#57d3ee8717)"><g clip-path="url(#9513bd1f98)"><g clip-path="url(#08711f6117)"><g clip-path="url(#0e0e67d973)"><path fill="#000000" d="M 90.980469 170.445312 C 91.359375 170.085938 91.550781 169.660156 91.601562 169.121094 C 91.613281 169.023438 91.617188 168.972656 91.625 168.875 C 91.554688 168.078125 91.121094 167.394531 90.414062 167.03125 C 89.65625 166.664062 88.699219 166.816406 88.097656 167.402344 C 87.273438 168.214844 87.25 169.496094 88.011719 170.359375 C 88.773438 171.222656 90.113281 171.199219 90.980469 170.445312 Z M 90.386719 168.855469 C 90.386719 168.855469 90.382812 168.90625 90.386719 168.855469 C 90.382812 168.90625 90.382812 168.90625 90.382812 168.90625 C 90.382812 168.90625 90.382812 168.90625 90.386719 168.855469 Z M 88.667969 168.691406 C 88.667969 168.691406 88.671875 168.644531 88.675781 168.59375 C 88.679688 168.546875 88.738281 168.453125 88.746094 168.402344 L 88.863281 168.214844 C 88.914062 168.171875 88.96875 168.128906 89.023438 168.082031 L 89.074219 168.089844 C 89.019531 168.132812 89.074219 168.089844 89.121094 168.09375 C 89.175781 168.050781 89.273438 168.058594 89.328125 168.015625 C 89.328125 168.015625 89.175781 168.050781 89.277344 168.007812 L 89.382812 167.96875 L 89.480469 167.980469 C 89.480469 167.980469 89.480469 167.980469 89.527344 167.984375 C 89.527344 167.984375 89.578125 167.988281 89.578125 167.988281 L 89.773438 168.007812 L 90.015625 168.078125 C 90.109375 168.136719 90.109375 168.136719 90.109375 168.136719 L 90.152344 168.191406 C 90.152344 168.191406 90.152344 168.191406 90.199219 168.246094 L 90.332031 168.40625 C 90.328125 168.457031 90.375 168.460938 90.371094 168.507812 C 90.367188 168.558594 90.414062 168.5625 90.410156 168.613281 C 90.40625 168.660156 90.449219 168.714844 90.445312 168.761719 C 90.441406 168.8125 90.386719 168.855469 90.382812 168.90625 C 90.378906 168.953125 90.378906 168.953125 90.375 169.003906 C 90.367188 169.050781 90.308594 169.144531 90.304688 169.195312 C 90.304688 169.195312 90.304688 169.195312 90.300781 169.242188 C 90.246094 169.289062 90.1875 169.378906 90.183594 169.429688 C 90.183594 169.429688 90.128906 169.472656 90.128906 169.472656 C 90.128906 169.472656 90.078125 169.519531 90.078125 169.519531 C 90.023438 169.5625 90.023438 169.5625 90.078125 169.519531 C 90.023438 169.5625 89.972656 169.558594 89.96875 169.605469 L 89.914062 169.652344 L 89.511719 169.710938 C 89.464844 169.707031 89.464844 169.707031 89.414062 169.703125 L 89.21875 169.683594 L 89.03125 169.566406 C 88.933594 169.558594 89.078125 169.570312 89.078125 169.570312 C 89.078125 169.570312 88.941406 169.457031 88.941406 169.457031 L 88.847656 169.402344 C 88.847656 169.402344 88.757812 169.292969 88.714844 169.238281 L 88.675781 169.136719 L 88.726562 169.09375 C 88.734375 169.042969 88.691406 168.941406 88.699219 168.890625 L 88.707031 168.792969 C 88.65625 168.789062 88.664062 168.742188 88.667969 168.691406 Z M 88.667969 168.691406 " fill-opacity="1" fill-rule="nonzero"/></g></g></g></g><g clip-path="url(#e6cecf161d)"><g clip-path="url(#b070f42b1a)"><g clip-path="url(#c8a58801ef)"><g clip-path="url(#3117acdabe)"><path fill="#000000" d="M 89.511719 169.710938 C 89.515625 169.664062 89.414062 169.703125 89.511719 169.710938 Z M 89.511719 169.710938 " fill-opacity="1" fill-rule="nonzero"/></g></g></g></g><g clip-path="url(#256a525d89)"><g clip-path="url(#176c33cd26)"><g clip-path="url(#b1c1d3b9be)"><g clip-path="url(#c4e23b6a98)"><path fill="#000000" d="M 88.667969 168.691406 C 88.730469 168.550781 88.671875 168.644531 88.667969 168.691406 Z M 88.667969 168.691406 " fill-opacity="1" fill-rule="nonzero"/></g></g></g></g><g clip-path="url(#9fc4edf3a3)"><g clip-path="url(#7a02f736a3)"><g clip-path="url(#42b250159e)"><g clip-path="url(#cbe61ab657)"><path fill="#000000" d="M 110.09375 185.804688 C 109.65625 185.171875 108.6875 185.96875 109.125 186.601562 L 113.371094 192.492188 L 108.085938 197.46875 C 107.488281 198.003906 108.289062 198.96875 108.886719 198.433594 L 114.609375 193.054688 C 114.875 192.832031 114.914062 192.441406 114.691406 192.171875 Z M 110.09375 185.804688 " fill-opacity="1" fill-rule="nonzero"/></g></g></g></g><g clip-path="url(#4d55e601cb)"><g clip-path="url(#76cdf95467)"><g clip-path="url(#4106f04349)"><g clip-path="url(#a73ced2cdc)"><path fill="#000000" d="M 95.644531 184.421875 L 89.972656 189.808594 C 89.703125 190.027344 89.664062 190.421875 89.886719 190.6875 L 94.4375 197.050781 C 94.921875 197.691406 95.839844 196.890625 95.40625 196.253906 L 91.15625 190.367188 L 96.445312 185.390625 C 97.042969 184.851562 96.242188 183.886719 95.644531 184.421875 Z M 95.644531 184.421875 " fill-opacity="1" fill-rule="nonzero"/></g></g></g></g><g clip-path="url(#7f39488933)"><g clip-path="url(#ced5f4ece6)"><g clip-path="url(#83f9cc9596)"><g clip-path="url(#f0f9311e32)"><path fill="#000000" d="M 105.265625 185.441406 L 99.171875 195.230469 L 98.296875 196.628906 C 97.886719 197.28125 98.855469 198.015625 99.316406 197.371094 L 105.460938 187.585938 L 106.335938 186.1875 C 106.648438 185.523438 105.675781 184.789062 105.265625 185.441406 Z M 105.265625 185.441406 " fill-opacity="1" fill-rule="nonzero"/></g></g></g></g><g fill="#0c0548" fill-opacity="1"><g transform="translate(146.714547, 203.241808)"><g><path d="M 29.078125 -15.5 C 29.078125 -10.5 27.648438 -6.664062 24.796875 -4 C 21.941406 -1.332031 17.828125 0 12.453125 0 L 3.828125 0 L 3.828125 -30.421875 L 13.375 -30.421875 C 18.34375 -30.421875 22.203125 -29.109375 24.953125 -26.484375 C 27.703125 -23.867188 29.078125 -20.207031 29.078125 -15.5 Z M 22.375 -15.34375 C 22.375 -21.875 19.488281 -25.140625 13.71875 -25.140625 L 10.28125 -25.140625 L 10.28125 -5.328125 L 13.046875 -5.328125 C 19.265625 -5.328125 22.375 -8.664062 22.375 -15.34375 Z M 22.375 -15.34375 "/></g></g></g><g fill="#0c0548" fill-opacity="1"><g transform="translate(178.265433, 203.241808)"><g><path d="M 12.96875 -19.1875 C 11.625 -19.1875 10.566406 -18.757812 9.796875 -17.90625 C 9.035156 -17.050781 8.597656 -15.84375 8.484375 -14.28125 L 17.40625 -14.28125 C 17.375 -15.84375 16.960938 -17.050781 16.171875 -17.90625 C 15.378906 -18.757812 14.3125 -19.1875 12.96875 -19.1875 Z M 13.859375 0.421875 C 10.109375 0.421875 7.179688 -0.609375 5.078125 -2.671875 C 2.972656 -4.742188 1.921875 -7.675781 1.921875 -11.46875 C 1.921875 -15.363281 2.894531 -18.375 4.84375 -20.5 C 6.789062 -22.632812 9.484375 -23.703125 12.921875 -23.703125 C 16.210938 -23.703125 18.773438 -22.765625 20.609375 -20.890625 C 22.441406 -19.023438 23.359375 -16.441406 23.359375 -13.140625 L 23.359375 -10.046875 L 8.34375 -10.046875 C 8.414062 -8.242188 8.953125 -6.835938 9.953125 -5.828125 C 10.953125 -4.816406 12.351562 -4.3125 14.15625 -4.3125 C 15.550781 -4.3125 16.875 -4.457031 18.125 -4.75 C 19.375 -5.039062 20.679688 -5.503906 22.046875 -6.140625 L 22.046875 -1.234375 C 20.929688 -0.671875 19.742188 -0.253906 18.484375 0.015625 C 17.222656 0.285156 15.679688 0.421875 13.859375 0.421875 Z M 13.859375 0.421875 "/></g></g></g><g fill="#0c0548" fill-opacity="1"><g transform="translate(203.447867, 203.241808)"><g><path d="M 8.859375 0 L 0 -23.265625 L 6.640625 -23.265625 L 11.140625 -10.015625 C 11.640625 -8.335938 11.953125 -6.75 12.078125 -5.25 L 12.203125 -5.25 C 12.265625 -6.582031 12.578125 -8.171875 13.140625 -10.015625 L 17.609375 -23.265625 L 24.25 -23.265625 L 15.375 0 Z M 8.859375 0 "/></g></g></g><g fill="#0c0548" fill-opacity="1"><g transform="translate(227.693765, 203.241808)"><g><path d="M 3.828125 -30.421875 L 13.296875 -30.421875 C 17.609375 -30.421875 20.738281 -29.804688 22.6875 -28.578125 C 24.644531 -27.359375 25.625 -25.410156 25.625 -22.734375 C 25.625 -20.910156 25.195312 -19.414062 24.34375 -18.25 C 23.488281 -17.082031 22.351562 -16.382812 20.9375 -16.15625 L 20.9375 -15.9375 C 22.863281 -15.507812 24.253906 -14.707031 25.109375 -13.53125 C 25.960938 -12.351562 26.390625 -10.785156 26.390625 -8.828125 C 26.390625 -6.046875 25.382812 -3.878906 23.375 -2.328125 C 21.375 -0.773438 18.65625 0 15.21875 0 L 3.828125 0 Z M 10.28125 -18.375 L 14.03125 -18.375 C 15.78125 -18.375 17.046875 -18.644531 17.828125 -19.1875 C 18.609375 -19.726562 19 -20.625 19 -21.875 C 19 -23.039062 18.570312 -23.875 17.71875 -24.375 C 16.863281 -24.882812 15.515625 -25.140625 13.671875 -25.140625 L 10.28125 -25.140625 Z M 10.28125 -13.265625 L 10.28125 -5.328125 L 14.484375 -5.328125 C 16.265625 -5.328125 17.578125 -5.664062 18.421875 -6.34375 C 19.265625 -7.03125 19.6875 -8.070312 19.6875 -9.46875 C 19.6875 -12 17.882812 -13.265625 14.28125 -13.265625 Z M 10.28125 -13.265625 "/></g></g></g><g fill="#0c0548" fill-opacity="1"><g transform="translate(256.33098, 203.241808)"><g><path d="M 0 -23.265625 L 6.953125 -23.265625 L 11.34375 -10.171875 C 11.71875 -9.035156 11.972656 -7.691406 12.109375 -6.140625 L 12.234375 -6.140625 C 12.390625 -7.566406 12.691406 -8.910156 13.140625 -10.171875 L 17.4375 -23.265625 L 24.25 -23.265625 L 14.40625 2.96875 C 13.5 5.40625 12.207031 7.222656 10.53125 8.421875 C 8.863281 9.628906 6.914062 10.234375 4.6875 10.234375 C 3.582031 10.234375 2.503906 10.117188 1.453125 9.890625 L 1.453125 4.84375 C 2.222656 5.03125 3.054688 5.125 3.953125 5.125 C 5.078125 5.125 6.054688 4.78125 6.890625 4.09375 C 7.734375 3.40625 8.390625 2.367188 8.859375 0.984375 L 9.234375 -0.171875 Z M 0 -23.265625 "/></g></g></g><g fill="#0c0548" fill-opacity="1"><g transform="translate(280.576878, 203.241808)"><g><path d="M 10.28125 -16.109375 L 12.40625 -16.109375 C 14.382812 -16.109375 15.867188 -16.5 16.859375 -17.28125 C 17.847656 -18.070312 18.34375 -19.210938 18.34375 -20.703125 C 18.34375 -22.222656 17.925781 -23.34375 17.09375 -24.0625 C 16.269531 -24.78125 14.976562 -25.140625 13.21875 -25.140625 L 10.28125 -25.140625 Z M 24.84375 -20.9375 C 24.84375 -17.664062 23.816406 -15.160156 21.765625 -13.421875 C 19.722656 -11.691406 16.816406 -10.828125 13.046875 -10.828125 L 10.28125 -10.828125 L 10.28125 0 L 3.828125 0 L 3.828125 -30.421875 L 13.546875 -30.421875 C 17.234375 -30.421875 20.035156 -29.625 21.953125 -28.03125 C 23.878906 -26.445312 24.84375 -24.082031 24.84375 -20.9375 Z M 24.84375 -20.9375 "/></g></g></g><g fill="#0c0548" fill-opacity="1"><g transform="translate(307.34102, 203.241808)"><g><path d="M 3.0625 -29.28125 C 3.0625 -31.351562 4.210938 -32.390625 6.515625 -32.390625 C 8.816406 -32.390625 9.96875 -31.351562 9.96875 -29.28125 C 9.96875 -28.300781 9.675781 -27.535156 9.09375 -26.984375 C 8.519531 -26.429688 7.660156 -26.15625 6.515625 -26.15625 C 4.210938 -26.15625 3.0625 -27.195312 3.0625 -29.28125 Z M 9.671875 0 L 3.328125 0 L 3.328125 -23.265625 L 9.671875 -23.265625 Z M 9.671875 0 "/></g></g></g><g fill="#0c0548" fill-opacity="1"><g transform="translate(320.348476, 203.241808)"><g><path d="M 8.09375 -11.890625 L 0.609375 -23.265625 L 7.8125 -23.265625 L 12.328125 -15.859375 L 16.875 -23.265625 L 24.078125 -23.265625 L 16.5 -11.890625 L 24.4375 0 L 17.21875 0 L 12.328125 -7.96875 L 7.40625 0 L 0.203125 0 Z M 8.09375 -11.890625 "/></g></g></g></svg>